<svg width="24" height="24" viewBox="0 0 24 24" fill="none" xmlns="http://www.w3.org/2000/svg">
<path d="M11.0648 16.6577C9.74585 16.6577 8.95017 15.8834 8.95017 14.795C8.95017 13.2994 10.4718 12 12.1329 11.6378L8.23256 2H15.0432L16.299 4.40778H11.5266L14.3738 11.3603C14.62 11.9067 14.7479 12.499 14.7492 13.0984C14.7492 15.1506 12.6977 16.6577 11.0648 16.6577Z" fill="#f12c18"/>
<path d="M18.0997 7.06812L21.0731 12.1994C21.6453 13.2259 21.9631 14.3746 22 15.5493C22 19.2981 19.0448 22 14.8571 22H9.14286C4.95183 22 2 19.2981 2 15.5493C2.03466 14.3749 2.35084 13.2261 2.92193 12.1994L5.89369 7.06812H8.67774L5.20266 13.12C4.77681 13.8458 4.53926 14.6667 4.51163 15.5078C4.51163 17.8956 6.14452 19.5922 9.22259 19.5922H14.7708C17.8488 19.5922 19.4817 17.8956 19.4817 15.5078C19.4541 14.6667 19.2165 13.8458 18.7907 13.12L15.3156 7.06812H18.0997Z" fill="#f12c18"/>
</svg>
